<?xml version="1.0" encoding="UTF-8" standalone="no"?>
<!-- Created with Inkscape (http://www.inkscape.org/) -->
<svg id="svg2" xmlns:rdf="http://www.w3.org/1999/02/22-rdf-syntax-ns#" xmlns="http://www.w3.org/2000/svg" xml:space="preserve" height="34" width="61.994" version="1.1" xmlns:cc="http://creativecommons.org/ns#" xmlns:dc="http://purl.org/dc/elements/1.1/"><metadata id="metadata8"><rdf:RDF><cc:Work rdf:about=""><dc:format>image/svg+xml</dc:format><dc:type rdf:resource="http://purl.org/dc/dcmitype/StillImage"/><dc:title/></cc:Work></rdf:RDF></metadata><defs id="defs6"><clipPath id="clipPath20"><path id="path22" d="m0 121.26h221.1v-121.26h-221.1v121.26z"/></clipPath></defs><g id="g10" transform="matrix(1.25 0 0 -1.25 -.000041959 34)"><g id="g3019" transform="matrix(.22431 0 0 .22431 .000026038 0)"><g id="g12" transform="translate(90.229 9.5307)"><path id="path14" d="m0 0-0.855 4.607-0.877-4.602 1.732-0.005zm0.501-2.772-2.765 0.007-0.388-2.113-2.479 0.006 2.988 12.804 2.646-0.008 2.918-12.819-2.54 0.006-0.38 2.117zm-19.431 10.751 6.001-0.017-0.007-2.754-3.565 0.011-0.006-2.237 3.044-0.009-0.008-2.586-3.043 0.008-0.015-5.234-2.438 0.006 0.037 12.812zm-14.651 0.041 2.429-0.007-0.027-9.655 3.788-0.011-0.01-3.156-6.216 0.018 0.036 12.811zm-11.551-7.892-0.856 4.608-0.876-4.604 1.732-0.004zm0.5-2.772-2.765 0.007-0.387-2.114-2.479 0.008 2.988 12.802 2.645-0.007 2.918-12.82-2.54 0.007-0.38 2.117z" fill-rule="evenodd" fill="#b09879"/></g><g id="g16"><g id="g18" clip-path="url(#clipPath20)"><g id="g24" transform="translate(.1768 .7663)"><path id="path26" d="m0 0c-0.228 0.418-0.265 0.975 0.066 1.337 0.11 0.12 1.243 0.387 1.565 0.503 1.414 0.518 2.909 0.976 4.401 2.202 2.274 1.869 3.556 3.127 5.059 5.038 3.105 3.947 7.594 9.909 12.347 14.239 2.748 2.504 4.123 4.235 6.46 6.168 3.006 2.487 5.322 5.45 6.88 7.257 9.341 10.838 17.247 20.609 26.136 30.855 1.502 1.732 3.503 3.756 4.267 4.617 0.848 0.954 1.448 1.667 2.187 2.282 0.93 0.774 2.031 1.321 3.905 1.711 0.775 0.161 2.193 0.401 3.976-0.114 1.782-0.516 6.79-4.529 10.878-9.699 6.863-8.677 14.53-20.214 17.642-24.349-0.051 2.063-0.424 5.443-3.135 8.281-1.825 1.913-3.535 4.993-4.604 7.245-2.429 5.12-3.381 10.256-3.648 13.627-0.075 0.943-0.012 1.749-0.167 2.285-0.664 0.28-1.875 0.625-2.592 0.855-2.064 0.662-3.412 1.589-4.218 2.792-2.144 3.201-1.305 6.03-0.477 7.657 1.156 2.27 3.956 4.654 7.005 8.339 1.917 2.316 2.705 5.373 2.828 8.238 0.154 3.571-0.757 7.228-0.477 10.468 0.197 2.287 1.414 5.249 2.542 5.895 0.808-0.178 1.303-1.118 1.708-1.991 0.675-1.454 1.317-2.774 2.259-3.512l0.342-0.28c1.463-1.199 5.299 0.051 7.209 1.659 2.083 1.752 3.443 3.13 5.833 4.553 1.622 0.966 4.946 2.378 6.478 2.334 4.303-3.456 6.73-10.016 6.262-18.691-0.366-6.777-4.028-13.801-6.379-20.934-2.208-6.7-3.343-13.503-3.382-19.725-0.041-6.94 5.466-14.214 8.294-22.399 1.133-3.281 2.364-7.933 2.416-11.598 0.047-3.36-0.398-10.032-3.77-13.912-4.71-5.429-12.67-6.194-18.99-3.673-6.96 2.775-12.46 12.046-16.383 17.851-12.571 18.593-12.797 26.185-15.925 29.856-0.37 0.434-0.99 1.061-1.48 1.145-0.381-0.123-0.82-0.657-1.202-1.105-2.269-2.664-3.594-6.134-4.542-8.054-0.81-1.641-2.163-3.885-3.641-5.435-3.434-3.602-7.49-6.075-11.47-8.537-6.209-3.839-12.097-7.25-16.519-11.078-1.519-1.315-3.233-2.966-3.874-5.036-0.308-0.996-0.3-2.153-0.255-2.946 0.126-2.242 0.988-6.768-3.01-7.839-1.716-0.46-3.053 0.142-4.398 0.312-0.803 0.102-1.908 0.019-2.4-0.068-0.772-0.138-2.336-0.606-3.526-1.477-1.986-1.451-4.296-3.76-6.787-5.522-1.878-1.328-4.14-0.557-5.988-1.548-2.038-1.094-5.125-1.164-5.71-0.093" fill-rule="evenodd" fill="#b09879"/></g><g id="g28" transform="translate(148.67 108.09)"><path id="path30" d="m0 0c-5.13-11.68-11.755-22.923-13.364-35.578-2.3-18.095 11.049-32.735 10.728-50.337-0.129-7.112-3.348-12.358-6.357-18.527l-1.99 1.262c3.506 7.172 7.344 14.051 5.732 22.412-2.95 15.301-12.502 29.155-10.462 45.375 1.638 13.027 8.439 24.605 13.708 36.631l2.005-1.24z" fill-rule="evenodd" fill="#b09879"/></g><g id="g32" transform="translate(158.59 4.4355)"><path id="path34" d="m0 0 0.064 104.92h-1.178l-0.032-52.457-0.032-52.463h1.178zm1.242 104.92-0.032-52.459-0.032-52.462-1.178 0.001 0.064 104.92h1.178z" fill-rule="evenodd" fill="#b09879"/></g><g id="g36" transform="translate(157.46 109.9)"><path id="path38" d="m0 0c5.209-0.586 9.564-1.098 13.7-4.69 5.091-4.421 7.266-11.486 8.003-17.951 1.166-10.22-0.779-20.331-5.059-29.677-3.285-7.174-7.68-13.822-12.698-19.91l-7.732-8.411-1.662 1.671 14.384 17.446c6.067 9.678 10.735 20.65 10.734 32.239-0.001 7.815-1.217 17.331-7.531 22.828-3.65 3.177-7.522 3.587-12.119 4.099l-0.02 2.356z" fill-rule="evenodd" fill="#b09879"/></g><g id="g40" transform="translate(176.6 12.246)"><path id="path42" d="m0 0 24.413 30.819c-3.189 16.295-6.506 30.989-11.786 46.674-3.653-27.307-5.178-55.161-12.627-77.493m29.968-7.968-2.335 0.007c-0.439 11.076-1.437 24.745-2.86 35.826l-31.441-39.66c14.924 35.112 12.88 65.35 18.217 98.767 6.056-16.344 10.96-34.325 14.713-53.943l16.767 20.996 1.471-1.358-17.879-22.715c1.57-11.778 2.761-26.146 3.347-37.92" fill-rule="evenodd" fill="#b09879"/></g></g></g></g></g></svg>
